<?xml version="1.0" standalone="no"?>
<!DOCTYPE svg PUBLIC "-//W3C//DTD SVG 20010904//EN"
 "http://www.w3.org/TR/2001/REC-SVG-20010904/DTD/svg10.dtd">
<svg version="1.0" xmlns="http://www.w3.org/2000/svg"
 width="1024.000000pt" height="1024.000000pt" viewBox="0 0 1024.000000 1024.000000"
 preserveAspectRatio="xMidYMid meet">

<g transform="translate(0.000000,1024.000000) scale(0.100000,-0.100000)"
fill="#000000" stroke="none">
<path d="M5082 7453 c37 -2 100 -2 140 0 40 1 10 3 -67 3 -77 0 -110 -1 -73
-3z"/>
<path d="M4840 7439 c-41 -5 -82 -11 -90 -13 -33 -8 61 -3 155 9 55 7 80 12
55 12 -25 0 -79 -3 -120 -8z"/>
<path d="M5328 7443 c12 -2 32 -2 45 0 12 2 2 4 -23 4 -25 0 -35 -2 -22 -4z"/>
<path d="M5413 7433 c9 -2 25 -2 35 0 9 3 1 5 -18 5 -19 0 -27 -2 -17 -5z"/>
<path d="M5483 7423 c9 -2 25 -2 35 0 9 3 1 5 -18 5 -19 0 -27 -2 -17 -5z"/>
<path d="M4698 7413 c7 -3 16 -2 19 1 4 3 -2 6 -13 5 -11 0 -14 -3 -6 -6z"/>
<path d="M5548 7413 c6 -2 18 -2 25 0 6 3 1 5 -13 5 -14 0 -19 -2 -12 -5z"/>
<path d="M4610 7400 c-20 -6 -21 -8 -5 -8 11 0 34 4 50 8 27 7 27 8 5 8 -14 0
-36 -4 -50 -8z"/>
<path d="M5598 7403 c6 -2 18 -2 25 0 6 3 1 5 -13 5 -14 0 -19 -2 -12 -5z"/>
<path d="M5648 7393 c7 -3 16 -2 19 1 4 3 -2 6 -13 5 -11 0 -14 -3 -6 -6z"/>
<path d="M4520 7375 c-19 -7 -28 -13 -20 -13 8 0 31 6 50 13 19 7 28 13 20 13
-8 0 -31 -6 -50 -13z"/>
<path d="M5710 7376 c19 -8 44 -15 55 -15 l20 0 -20 8 c-11 5 -36 11 -55 15
l-35 6 35 -14z"/>
<path d="M5839 7339 c30 -10 56 -17 58 -15 5 5 -86 36 -101 35 -6 0 13 -9 43
-20z"/>
<path d="M4415 7340 c-13 -6 -15 -9 -5 -9 8 0 22 4 30 9 18 12 2 12 -25 0z"/>
<path d="M4360 7320 c-8 -5 -10 -10 -5 -10 6 0 17 5 25 10 8 5 11 10 5 10 -5
0 -17 -5 -25 -10z"/>
<path d="M5920 7310 c20 -13 33 -13 25 0 -3 6 -14 10 -23 10 -15 0 -15 -2 -2
-10z"/>
<path d="M4180 7242 c-114 -57 -230 -127 -230 -138 0 -4 10 0 23 8 69 44 153
92 242 137 55 27 96 50 90 51 -5 0 -62 -26 -125 -58z"/>
<path d="M5976 7285 c10 -8 24 -15 29 -15 6 0 41 -16 80 -34 38 -19 71 -33 74
-31 4 5 -182 95 -196 95 -4 0 2 -7 13 -15z"/>
<path d="M5075 7265 c-5 -2 -66 -5 -135 -8 -69 -2 -135 -9 -145 -15 -11 -6
-14 -12 -7 -12 7 0 11 -4 8 -9 -3 -5 8 -19 24 -32 44 -35 110 -134 265 -399
353 -601 535 -839 843 -1102 34 -29 65 -63 68 -75 16 -60 -30 -110 -90 -99
-33 6 -164 113 -271 221 -225 228 -420 490 -690 930 -129 210 -268 415 -322
475 l-42 47 -53 -13 c-98 -26 -178 -62 -236 -105 l-23 -18 40 -25 c22 -15 44
-26 48 -26 5 0 19 -16 32 -35 21 -31 38 -53 71 -92 5 -7 10 -15 10 -19 0 -10
100 -172 116 -189 8 -8 17 -23 18 -32 2 -10 15 -39 28 -64 36 -67 39 -85 17
-110 -10 -12 -19 -19 -19 -15 0 4 -10 0 -22 -8 -12 -9 -32 -16 -43 -17 -20 0
-20 0 0 -10 19 -8 18 -8 -3 -6 -17 1 -30 16 -49 52 -14 28 -29 57 -34 65 -5 8
-14 26 -19 40 -22 53 -76 152 -87 162 -7 6 -13 14 -13 19 0 5 -29 52 -65 104
-67 99 -79 138 -48 160 9 7 14 19 10 28 -5 14 -15 12 -69 -15 -79 -38 -246
-149 -283 -188 l-27 -29 33 -14 c19 -8 45 -29 59 -47 14 -18 34 -41 44 -51 11
-11 16 -19 12 -19 -5 0 6 -16 23 -35 16 -19 36 -53 42 -75 7 -22 15 -40 19
-40 4 0 11 -15 14 -34 4 -19 11 -36 16 -38 5 -2 12 -21 16 -43 3 -22 10 -45
14 -50 5 -6 12 -35 15 -65 4 -30 14 -81 22 -113 19 -71 13 -170 -13 -198 -17
-19 -18 -19 -34 24 -10 25 -20 69 -24 98 -7 52 -38 172 -55 214 -33 77 -57
125 -63 125 -5 0 -8 8 -8 18 0 10 -7 27 -15 37 -9 11 -32 43 -53 71 -21 27
-50 63 -65 79 -15 17 -32 45 -38 62 -6 18 -15 33 -20 33 -5 0 -44 -35 -87 -77
-153 -152 -178 -194 -119 -201 21 -3 43 -22 89 -82 59 -74 128 -190 128 -214
1 -6 9 -29 20 -51 11 -22 19 -53 20 -68 0 -15 7 -44 15 -64 17 -40 20 -239 6
-308 -5 -22 -14 -65 -20 -95 -19 -93 -153 -429 -180 -450 -3 -3 -24 -40 -46
-83 -22 -43 -52 -91 -67 -107 -14 -16 -28 -33 -30 -37 -11 -27 -71 -113 -78
-113 -5 0 -15 -2 -22 -5 -9 -4 -19 3 -25 17 -12 27 5 85 40 132 12 17 40 60
60 96 21 36 42 72 47 80 5 8 27 53 50 100 23 47 48 97 56 112 8 14 14 33 14
42 0 9 4 16 9 16 5 0 13 15 16 33 4 17 11 37 15 42 4 6 18 44 31 85 20 66 23
95 24 245 0 200 -4 253 -22 280 -7 11 -13 31 -13 46 0 14 -9 38 -21 53 -11 14
-17 26 -12 26 4 0 3 4 -2 8 -6 4 -23 27 -39 51 -15 24 -40 55 -55 70 -14 14
-39 43 -55 64 l-29 38 -29 -33 c-35 -40 -93 -140 -131 -228 -15 -36 -32 -73
-37 -82 -13 -23 -13 -58 0 -58 6 0 10 11 10 24 0 14 4 27 8 30 16 10 57 -20
60 -44 2 -13 10 -34 18 -46 36 -54 33 -365 -4 -474 -23 -66 -41 -80 -75 -57
-21 14 -24 22 -21 58 2 23 11 62 19 86 31 90 4 383 -36 391 -19 3 -17 7 -70
-143 -104 -293 -132 -580 -89 -930 11 -88 26 -185 34 -215 27 -105 83 -275
120 -370 21 -52 43 -108 48 -123 6 -15 16 -26 22 -24 17 5 138 150 219 262
111 152 252 394 389 665 68 135 131 263 140 285 9 22 46 108 83 190 37 83 70
161 74 175 5 14 22 54 38 90 17 36 38 88 48 115 9 28 21 59 26 70 4 11 17 45
29 75 66 169 118 249 194 298 32 20 56 26 125 29 77 4 91 2 131 -20 26 -14 44
-31 44 -40 -1 -9 3 -15 9 -14 17 3 62 -87 92 -182 62 -194 193 -419 431 -737
124 -166 140 -195 124 -224 -15 -27 -60 -60 -83 -60 -11 0 -40 21 -64 48 -67
72 -271 353 -353 487 -40 66 -80 130 -88 143 -17 26 -4 50 -112 -213 -29 -71
-102 -233 -162 -360 -60 -126 -123 -261 -141 -300 -43 -95 -160 -329 -252
-505 -42 -79 -72 -146 -67 -148 6 -2 57 26 113 62 173 109 239 151 257 161
154 91 213 125 256 148 28 16 89 50 136 77 92 52 468 242 755 383 158 77 316
159 381 199 12 7 44 25 71 40 199 107 466 319 583 461 36 44 73 88 83 98 9 10
17 21 17 24 0 3 16 28 35 55 19 27 35 55 35 60 0 25 -130 234 -199 320 -111
139 -244 284 -357 390 -257 242 -615 406 -991 455 l-53 7 14 -39 c23 -64 118
-251 199 -391 198 -341 400 -602 622 -802 63 -57 122 -119 130 -137 19 -40 11
-79 -21 -100 -39 -25 -72 -3 -243 166 -137 136 -362 397 -379 441 -3 8 -8 17
-12 20 -36 28 -354 547 -440 720 -66 133 -73 140 -124 139 -23 0 -45 -2 -51
-4z m937 -266 c15 -19 28 -40 28 -47 0 -7 7 -15 15 -18 8 -4 15 -14 15 -24 0
-10 7 -23 15 -30 8 -7 15 -19 15 -26 0 -8 9 -19 19 -26 10 -6 17 -17 14 -24
-2 -6 1 -15 6 -19 6 -3 18 -21 26 -38 16 -36 26 -53 67 -114 15 -23 28 -45 28
-49 0 -4 16 -26 35 -50 19 -23 35 -49 35 -57 0 -8 7 -17 15 -21 8 -3 15 -12
15 -21 0 -8 7 -15 15 -15 8 0 15 -6 15 -12 0 -7 12 -24 25 -37 14 -12 22 -27
19 -32 -3 -5 0 -9 5 -9 6 0 11 -6 11 -14 0 -7 7 -19 15 -26 24 -20 17 -30 -17
-23 -18 4 -41 17 -52 30 -10 13 -24 22 -32 19 -8 -3 -11 0 -7 9 3 9 -2 18 -12
21 -23 9 -80 66 -130 129 -22 28 -52 62 -67 77 -16 15 -28 32 -28 39 0 6 -13
28 -28 48 -16 20 -39 54 -52 76 -13 22 -26 42 -29 45 -4 3 -15 22 -25 43 -11
20 -24 37 -29 37 -6 0 -8 3 -4 6 6 7 -30 81 -44 90 -5 3 -9 13 -9 23 0 10 -7
24 -15 31 -8 7 -15 20 -15 30 0 14 9 16 57 15 51 -2 59 -6 85 -36z m514 -770
c52 -17 101 -38 109 -46 20 -19 19 -78 -1 -98 -15 -14 -19 -14 -46 3 -30 19
-89 68 -162 134 -37 34 -39 38 -18 38 12 0 65 -14 118 -31z m-1520 -1032 c22
-19 26 -32 27 -75 1 -41 -4 -57 -23 -77 -77 -82 -198 54 -122 139 37 40 80 45
118 13z"/>
<path d="M6196 7191 c-4 -6 8 -18 26 -27 50 -25 184 -120 271 -191 42 -35 77
-61 77 -58 0 9 -63 65 -73 65 -4 0 -5 5 -1 12 4 6 3 8 -3 5 -5 -3 -25 7 -44
24 -19 16 -38 29 -42 29 -5 0 -5 5 -1 12 4 6 3 8 -3 5 -13 -8 -105 58 -95 68
4 5 2 5 -5 1 -7 -4 -21 2 -33 14 -11 11 -20 17 -20 13 0 -3 -11 4 -24 16 -15
14 -26 18 -30 12z"/>
<path d="M3846 7032 c-48 -37 -98 -73 -109 -79 -12 -7 -18 -13 -14 -13 5 0
-16 -21 -47 -47 -30 -27 -86 -82 -123 -123 -52 -58 -39 -48 57 46 113 108 290
255 322 267 7 2 11 7 8 10 -3 4 -46 -24 -94 -61z"/>
<path d="M6580 6908 c3 -3 51 -54 107 -112 129 -134 293 -351 373 -495 34 -62
64 -110 66 -109 7 7 -9 48 -18 48 -5 0 -6 5 -3 10 3 6 1 10 -5 10 -6 0 -9 4
-6 9 4 5 1 11 -6 13 -6 2 -13 15 -15 28 -2 13 -7 27 -11 30 -5 3 -19 23 -32
45 -13 22 -27 42 -30 45 -25 23 -59 74 -54 82 4 6 2 8 -4 4 -10 -6 -59 62 -54
77 1 5 -2 6 -7 2 -12 -7 -33 29 -23 40 4 5 2 5 -4 2 -7 -4 -19 8 -28 28 -10
20 -21 33 -25 30 -10 -5 -47 45 -43 58 1 5 -2 6 -7 3 -12 -8 -33 18 -23 29 4
5 2 5 -4 2 -6 -4 -16 5 -23 19 -6 14 -16 22 -21 19 -6 -3 -10 1 -10 10 0 9 -4
14 -9 11 -5 -4 -11 -3 -13 1 -2 5 -19 22 -38 38 -19 17 -33 27 -30 23z"/>
<path d="M3437 6640 c-21 -28 -35 -50 -30 -49 4 0 25 22 46 50 20 27 34 49 30
49 -5 -1 -25 -23 -46 -50z"/>
<path d="M3377 6563 c-8 -10 -35 -51 -60 -90 -24 -40 -47 -70 -51 -68 -3 3 -4
2 -1 -1 2 -4 -2 -19 -11 -35 -28 -55 -6 -28 36 44 24 39 55 88 70 107 31 40
43 60 37 60 -2 0 -11 -8 -20 -17z"/>
<path d="M3194 6259 c-19 -39 -34 -73 -32 -75 2 -2 21 30 41 71 20 41 35 75
32 75 -3 0 -21 -32 -41 -71z"/>
<path d="M4683 6235 c-35 -25 -58 -71 -128 -260 -37 -99 -78 -205 -92 -235
-14 -30 -54 -120 -90 -200 -157 -352 -366 -747 -532 -1009 -103 -162 -310
-430 -369 -479 -14 -11 -14 -17 5 -56 40 -82 184 -286 202 -286 13 0 36 31 71
94 18 32 56 98 85 145 142 230 305 506 352 596 98 186 300 599 368 750 36 83
80 179 97 215 56 119 170 384 199 463 45 121 34 211 -30 254 -40 27 -106 31
-138 8z"/>
<path d="M7131 6174 c0 -5 8 -27 18 -48 13 -31 19 -36 24 -23 3 9 2 17 -3 17
-5 0 -7 6 -4 13 2 7 -4 22 -16 32 -11 10 -20 14 -19 9z"/>
<path d="M3146 6153 c-6 -14 -5 -15 5 -6 7 7 10 15 7 18 -3 3 -9 -2 -12 -12z"/>
<path d="M3122 6101 c-6 -17 -9 -31 -6 -31 7 0 25 52 20 57 -2 2 -8 -10 -14
-26z"/>
<path d="M7170 6080 c0 -3 16 -50 35 -105 20 -55 34 -86 33 -70 -1 17 -6 35
-11 42 -5 7 -5 18 -1 24 4 8 3 9 -4 5 -11 -6 -17 12 -13 36 0 4 -8 22 -19 40
-11 18 -20 31 -20 28z"/>
<path d="M3086 6015 c-9 -26 -7 -32 5 -12 6 10 9 21 6 23 -2 3 -7 -2 -11 -11z"/>
<path d="M3055 5930 c-9 -28 -15 -53 -13 -56 3 -2 12 19 22 47 9 29 14 54 12
56 -2 2 -12 -19 -21 -47z"/>
<path d="M7018 5872 c-21 -35 -141 -177 -217 -255 -140 -146 -454 -354 -826
-550 -112 -59 -594 -297 -600 -297 -5 0 -336 -175 -430 -228 -110 -61 -259
-149 -375 -222 -227 -142 -350 -206 -422 -221 -66 -14 -72 -19 -101 -82 -13
-29 -59 -113 -102 -187 -43 -74 -90 -156 -103 -182 -23 -46 -24 -47 -5 -72 10
-14 22 -26 27 -26 5 0 18 -8 28 -17 38 -34 55 -27 179 77 66 55 122 100 125
100 6 0 16 8 69 55 22 19 43 35 47 35 4 0 13 6 20 13 21 20 126 87 136 87 6 0
12 4 14 9 5 14 266 178 348 219 30 14 63 35 70 43 3 3 30 18 60 32 30 15 100
52 155 82 98 54 350 180 530 265 127 60 509 251 575 287 30 16 66 36 80 44 14
7 28 13 32 14 8 0 43 24 62 40 6 6 54 36 107 68 53 31 122 76 153 99 30 24 80
61 110 83 51 38 221 204 276 270 68 82 70 85 70 150 0 34 -6 84 -14 111 -8 27
-17 65 -20 84 -4 29 -32 100 -40 100 -1 0 -9 -13 -18 -28z"/>
<path d="M7240 5866 c0 -1 11 -48 24 -102 66 -270 70 -724 10 -999 -28 -126
-76 -309 -94 -355 -122 -309 -211 -471 -375 -679 -76 -97 -127 -148 -270 -272
-16 -15 -43 -39 -60 -54 l-30 -27 33 24 c19 12 44 30 56 38 12 8 40 32 62 52
21 21 45 38 53 38 8 0 12 3 9 6 -7 7 74 89 85 86 5 -1 6 2 2 8 -3 5 -1 10 4
10 6 0 11 7 11 16 0 8 5 12 10 9 6 -3 10 -1 10 6 0 6 15 28 33 49 17 21 48 61
67 89 35 51 58 82 82 111 7 8 13 17 14 20 2 15 28 60 36 60 4 0 8 9 8 21 0 13
4 18 12 13 7 -4 8 -3 4 4 -4 7 -2 12 4 12 7 0 10 6 7 14 -3 7 4 21 15 30 11
10 17 23 15 31 -3 7 3 21 13 30 11 10 22 33 26 51 4 20 11 31 17 27 5 -3 7 -2
4 4 -8 12 13 72 31 91 7 8 10 18 6 23 -3 6 2 21 10 34 9 14 14 25 10 25 -4 0
-1 7 6 15 7 8 9 15 6 15 -4 0 -1 10 6 23 7 12 12 27 13 32 0 6 5 26 10 45 10
39 11 47 13 73 1 10 5 16 10 14 4 -3 8 11 9 31 3 47 7 64 17 81 5 7 10 30 11
50 2 20 7 63 10 96 4 33 9 71 10 85 1 14 3 25 4 25 17 0 14 496 -3 513 -11 11
-6 23 7 16 9 -6 9 -5 0 7 -7 8 -15 44 -19 80 -9 94 -11 102 -19 123 -5 10 -9
28 -9 40 -1 12 -5 26 -9 33 -4 6 -8 23 -9 37 -1 14 -6 26 -10 26 -4 0 -8 -2
-8 -4z"/>
<path d="M3031 5848 c0 -9 -4 -25 -7 -35 -5 -17 -5 -17 6 0 6 10 9 25 7 35 -4
15 -5 15 -6 0z"/>
<path d="M2996 5707 c-4 -26 -11 -45 -15 -42 -5 2 -6 -8 -3 -23 5 -24 7 -22
19 23 7 28 12 59 10 70 -1 11 -6 -1 -11 -28z"/>
<path d="M2972 5585 c0 -16 2 -22 5 -12 2 9 2 23 0 30 -3 6 -5 -1 -5 -18z"/>
<path d="M2956 5499 c-4 -28 -5 -53 -3 -56 3 -2 8 19 12 47 4 28 5 53 2 56 -2
3 -7 -19 -11 -47z"/>
<path d="M2944 5225 c0 -115 2 -161 3 -102 2 59 2 154 0 210 -1 56 -3 8 -3
-108z"/>
<path d="M7005 5205 c-66 -66 -163 -152 -215 -191 -76 -57 -289 -200 -353
-236 -6 -4 -46 -27 -88 -52 -70 -42 -421 -217 -655 -328 -217 -103 -454 -220
-539 -266 -257 -140 -313 -172 -470 -265 -275 -163 -410 -257 -584 -404 -30
-26 -32 -32 -22 -51 6 -12 18 -22 26 -22 8 0 31 -9 52 -19 57 -29 156 -74 172
-77 7 -1 18 -7 24 -13 22 -22 55 -10 110 39 64 55 173 134 200 143 9 4 17 11
17 17 0 5 4 10 10 10 5 0 19 8 30 18 11 9 36 26 55 37 87 51 181 110 195 121
8 6 44 27 80 47 224 120 296 158 385 201 55 26 144 70 197 97 53 27 106 49
117 49 50 0 44 -78 -10 -126 -13 -12 -105 -63 -204 -114 -306 -157 -515 -270
-575 -310 -14 -10 -52 -32 -85 -50 -78 -43 -263 -171 -293 -203 l-23 -25 22
-16 c14 -9 44 -16 72 -16 26 0 80 -6 120 -14 146 -29 182 -30 254 -4 60 21
638 304 667 326 6 5 38 24 71 42 33 18 83 47 110 64 73 46 88 52 112 48 25 -4
39 -38 29 -69 -19 -58 -150 -142 -456 -290 -281 -135 -283 -137 -288 -150 -5
-19 39 -25 88 -13 101 25 160 37 160 33 0 -3 6 -1 13 4 6 6 38 13 71 17 32 4
82 14 110 22 106 32 326 114 336 124 3 3 16 11 30 18 14 6 32 16 40 22 8 5 45
27 81 48 69 39 105 65 167 119 l37 31 -16 34 c-9 18 -43 74 -75 123 -69 107
-78 121 -98 160 -15 29 -106 165 -144 215 -40 52 -82 138 -82 166 0 16 7 40
16 52 14 20 23 23 67 20 l52 -3 50 -72 c67 -97 241 -368 300 -470 26 -46 54
-83 61 -83 17 0 84 61 84 77 0 7 9 17 20 23 11 6 20 16 20 23 0 7 14 25 30 41
17 16 30 33 30 38 0 4 16 30 35 57 19 26 35 52 35 56 0 5 6 16 14 24 18 21
102 179 111 211 4 14 13 32 20 40 7 8 15 24 18 35 3 11 15 45 27 75 12 30 26
71 32 90 6 19 13 40 17 45 12 20 57 188 71 270 31 175 40 255 40 361 0 65 -4
124 -8 129 -4 6 -58 -41 -127 -110z m-350 -765 c16 -6 32 -24 41 -47 22 -51 6
-102 -44 -143 -31 -26 -42 -30 -72 -25 -35 7 -99 61 -101 87 -1 7 -3 24 -4 38
-3 31 21 75 49 89 27 13 98 14 131 1z"/>
<path d="M2952 4980 c0 -19 2 -27 5 -17 2 9 2 25 0 35 -3 9 -5 1 -5 -18z"/>
<path d="M2962 4910 c0 -19 2 -27 5 -17 2 9 2 25 0 35 -3 9 -5 1 -5 -18z"/>
<path d="M2971 4845 c0 -16 8 -64 19 -105 21 -78 19 -55 -4 65 -8 39 -14 57
-15 40z"/>
<path d="M3012 4640 c0 -14 2 -19 5 -12 2 6 2 18 0 25 -3 6 -5 1 -5 -13z"/>
<path d="M3026 4585 c11 -48 25 -76 18 -35 -4 19 -10 42 -15 50 -6 10 -7 5 -3
-15z"/>
<path d="M3051 4503 c0 -4 4 -17 9 -28 8 -19 9 -19 9 2 1 12 -3 25 -9 28 -5 3
-10 3 -9 -2z"/>
<path d="M3070 4444 c0 -6 16 -51 35 -99 19 -47 32 -91 29 -97 -4 -7 -2 -8 4
-4 7 4 12 2 12 -4 0 -16 106 -237 131 -271 11 -16 17 -34 13 -40 -4 -8 -3 -9
4 -5 7 4 12 3 12 -1 0 -5 7 -18 15 -29 15 -19 15 -19 8 1 -4 11 -16 36 -28 55
-11 19 -29 49 -38 65 -32 55 -89 179 -143 310 -29 72 -54 125 -54 119z"/>
<path d="M3356 3845 c9 -16 35 -54 56 -82 21 -29 38 -54 38 -55 -1 -2 24 -30
54 -63 30 -32 54 -61 51 -63 -2 -2 14 -19 36 -39 21 -19 36 -40 32 -46 -3 -5
-2 -7 4 -4 5 3 24 -10 42 -28 18 -19 37 -35 42 -35 6 0 7 -6 3 -12 -4 -7 -4
-10 1 -6 4 4 35 -15 67 -42 33 -28 64 -50 69 -50 5 0 8 -5 7 -12 -2 -7 2 -13
7 -14 29 -5 55 -17 55 -26 0 -5 4 -7 10 -3 5 3 18 -3 30 -15 11 -11 23 -20 28
-21 19 -1 180 -88 174 -94 -3 -3 1 -3 11 1 10 3 17 1 17 -6 0 -6 5 -8 10 -5 6
3 10 2 10 -3 0 -5 6 -9 13 -9 6 0 30 -8 52 -18 22 -10 42 -19 45 -19 48 -13
60 -18 56 -24 -2 -4 6 -8 17 -8 37 -3 89 -13 124 -25 19 -6 36 -9 39 -6 2 2
-39 16 -93 31 -202 56 -512 208 -658 322 -91 71 -199 174 -265 253 -25 30 -49
59 -55 65 -5 6 -32 42 -60 79 -27 38 -58 78 -69 90 -18 22 -18 21 0 -8z"/>
<path d="M6400 3349 c-21 -18 -26 -26 -13 -20 12 6 25 16 28 21 4 6 11 8 16 5
5 -4 9 1 9 9 0 20 1 21 -40 -15z"/>
<path d="M6265 3264 c-49 -30 -92 -60 -94 -67 -3 -9 -1 -9 11 0 8 7 19 9 23 5
5 -4 6 -2 2 4 -6 10 110 81 126 76 4 -1 7 3 7 9 0 5 4 8 8 5 5 -3 9 1 9 9 0 8
-1 15 -1 14 -1 0 -41 -25 -91 -55z"/>
<path d="M6127 3186 c-17 -13 -17 -14 0 -20 10 -4 14 -4 10 0 -4 4 1 13 11 20
9 7 13 13 7 13 -5 0 -18 -6 -28 -13z"/>
<path d="M6025 3140 c-33 -16 -124 -50 -202 -77 -92 -30 -137 -50 -125 -54 9
-3 19 -3 22 1 7 11 80 30 80 22 0 -4 4 -1 8 6 5 7 18 14 30 17 11 2 30 9 42
15 12 6 28 9 36 6 9 -3 12 -1 9 4 -6 9 8 14 29 11 4 -1 14 3 22 10 7 6 19 7
25 3 7 -4 9 -3 5 4 -6 11 29 28 50 24 6 -1 19 7 29 18 24 26 12 24 -60 -10z"/>
<path d="M4578 3003 c7 -3 16 -2 19 1 4 3 -2 6 -13 5 -11 0 -14 -3 -6 -6z"/>
<path d="M5550 2989 c-47 -10 -116 -22 -155 -27 -49 -7 -59 -10 -35 -12 19 -1
39 -1 45 0 44 8 116 21 145 24 19 3 35 5 35 6 0 1 9 3 21 5 11 3 31 9 45 14
39 16 -3 12 -101 -10z"/>
<path d="M4628 2993 c7 -3 10 -8 7 -13 -3 -5 3 -7 14 -5 10 2 36 -1 57 -6 64
-16 192 -25 203 -14 2 3 -11 5 -30 5 -29 0 -155 17 -239 33 -14 2 -19 2 -12 0z"/>
<path d="M4928 2942 c12 -8 383 -5 391 4 2 2 -88 4 -200 4 -112 0 -198 -4
-191 -8z"/>
</g>
</svg>
